# xmcd
#
# Track frame offsets: 
#        150
#        13032
#        23007
#        38064
#        49102
#        59237
#        69278
#        81616
#        92445
#        102120
#        113836
#        126277
#        136285
#        147564
#        159110
#        170379
#        180786
#        191952
#        200746
#        211834
#        222538
#        232679
#        241567
#        254173
#        268358
#        278319
#        289485
#        300229
#        314058
#        324596
#
# Disc length: 4457 seconds
#
# Revision: 0
# Processed by: cddbd v1.5.2PL0 Copyright (c) Steve Scherf et al.
# Submitted via: ExactAudioCopyFreeDBPlugin 1.0
#
DISCID=b811671e
DTITLE=Patsy Cline - Showcase and Patsy Cline
DYEAR=2012
DGENRE=Country
TTITLE0=I fall to pieces
TTITLE1=Foolin' around
TTITLE2=The wayward wind
TTITLE3=South of the border
TTITLE4=I love you so much it hurts
TTITLE5=Seven lonely days
TTITLE6=Crazy
TTITLE7=San antonio rose
TTITLE8=True love
TTITLE9=Walkin' after midnight
TTITLE10=A poor man's roses
TTITLE11=Have you ever been lonely
TTITLE12=That wonderful someone
TTITLE13=(Write me) in care of the blues
TTITLE14=Hungry for love
TTITLE15=Too many secrets
TTITLE16=Don't ever leave me again
TTITLE17=Ain't no wheels on this ship
TTITLE18=I can't forget you
TTITLE19=I don't wanta
TTITLE20=Three cigarettes ( in an ashtray)
TTITLE21=Walkin' after midnight
TTITLE22=Fingerprints
TTITLE23=Then you'll know
TTITLE24=Turn the cards slowly
TTITLE25=Hidin' out
TTITLE26=Honky tonk merry go round
TTITLE27=A church, a courtroom,, and then goodbye
TTITLE28=Lovesick blues
TTITLE29=Lovin' in vain
EXTD=
EXTT0=
EXTT1=
EXTT2=
EXTT3=
EXTT4=
EXTT5=
EXTT6=
EXTT7=
EXTT8=
EXTT9=
EXTT10=
EXTT11=
EXTT12=
EXTT13=
EXTT14=
EXTT15=
EXTT16=
EXTT17=
EXTT18=
EXTT19=
EXTT20=
EXTT21=
EXTT22=
EXTT23=
EXTT24=
EXTT25=
EXTT26=
EXTT27=
EXTT28=
EXTT29=
PLAYORDER=
